<mxfile host="app.diagrams.net" agent="Mozilla/5.0 (Windows NT 10.0; Win64; x64) AppleWebKit/537.36 (KHTML, like Gecko) Chrome/139.0.0.0 Safari/537.36" version="28.1.0">
  <diagram name="PÃ¡gina-1" id="QajRzaFL-NLi7Gwja7vL">
    <mxGraphModel dx="992" dy="535" grid="1" gridSize="10" guides="1" tooltips="1" connect="1" arrows="1" fold="1" page="1" pageScale="1" pageWidth="827" pageHeight="1169" math="0" shadow="0">
      <root>
        <mxCell id="0" />
        <mxCell id="1" parent="0" />
        <mxCell id="I1FAZgchKAetT9O_WyYp-1" value="" style="rounded=0;whiteSpace=wrap;html=1;fillColor=none;" parent="1" vertex="1">
          <mxGeometry x="60" y="520" width="870" height="420" as="geometry" />
        </mxCell>
        <mxCell id="I1FAZgchKAetT9O_WyYp-2" value="" style="rounded=0;whiteSpace=wrap;html=1;fillColor=none;" parent="1" vertex="1">
          <mxGeometry x="735" y="553.37" width="180" height="60" as="geometry" />
        </mxCell>
        <mxCell id="-MUNUMHjovG54EuxszGH-2" style="edgeStyle=orthogonalEdgeStyle;rounded=0;orthogonalLoop=1;jettySize=auto;html=1;" parent="1" source="nsRHjqSwHCmtydrMpkoe-1" target="nsRHjqSwHCmtydrMpkoe-11" edge="1">
          <mxGeometry relative="1" as="geometry" />
        </mxCell>
        <mxCell id="nsRHjqSwHCmtydrMpkoe-1" value="" style="sketch=0;points=[[0,0,0],[0.25,0,0],[0.5,0,0],[0.75,0,0],[1,0,0],[0,1,0],[0.25,1,0],[0.5,1,0],[0.75,1,0],[1,1,0],[0,0.25,0],[0,0.5,0],[0,0.75,0],[1,0.25,0],[1,0.5,0],[1,0.75,0]];outlineConnect=0;dashed=0;verticalLabelPosition=bottom;verticalAlign=top;align=center;html=1;fontSize=12;fontStyle=0;aspect=fixed;shape=mxgraph.aws4.resourceIcon;resIcon=mxgraph.aws4.api_gateway;" parent="1" vertex="1">
          <mxGeometry x="230" y="703.5" width="78" height="78" as="geometry" />
        </mxCell>
        <mxCell id="nsRHjqSwHCmtydrMpkoe-2" value="&lt;div&gt;API&amp;nbsp;&lt;/div&gt;&lt;div&gt;Gateway&lt;/div&gt;" style="text;html=1;align=center;verticalAlign=middle;resizable=0;points=[];autosize=1;strokeColor=none;fillColor=none;" parent="1" vertex="1">
          <mxGeometry x="200" y="766" width="70" height="40" as="geometry" />
        </mxCell>
        <mxCell id="nsRHjqSwHCmtydrMpkoe-12" value="Register" style="text;html=1;align=center;verticalAlign=middle;resizable=0;points=[];autosize=1;strokeColor=none;fillColor=none;" parent="1" vertex="1">
          <mxGeometry x="389" y="766.5" width="70" height="30" as="geometry" />
        </mxCell>
        <mxCell id="FRCylCwCFbOvexBoIbVf-19" style="edgeStyle=orthogonalEdgeStyle;rounded=0;orthogonalLoop=1;jettySize=auto;html=1;" parent="1" source="nsRHjqSwHCmtydrMpkoe-11" target="bxDiHAAbnMYEJxM6YMKJ-7" edge="1">
          <mxGeometry relative="1" as="geometry" />
        </mxCell>
        <mxCell id="nsRHjqSwHCmtydrMpkoe-11" value="" style="sketch=0;outlineConnect=0;fontColor=#232F3E;gradientColor=none;fillColor=#ED7100;strokeColor=none;dashed=0;verticalLabelPosition=bottom;verticalAlign=top;align=center;html=1;fontSize=12;fontStyle=0;aspect=fixed;pointerEvents=1;shape=mxgraph.aws4.lambda_function;" parent="1" vertex="1">
          <mxGeometry x="400" y="718.5" width="48" height="48" as="geometry" />
        </mxCell>
        <mxCell id="XVp57DwJdD9aT9oTTaYd-12" value="" style="rounded=0;whiteSpace=wrap;html=1;fillColor=#647687;fontColor=#ffffff;strokeColor=none;opacity=30;" parent="1" vertex="1">
          <mxGeometry x="640" y="647.25" width="250" height="189.5" as="geometry" />
        </mxCell>
        <mxCell id="5WXB7JSNYIkjzYqfgSPr-3" style="edgeStyle=orthogonalEdgeStyle;rounded=0;orthogonalLoop=1;jettySize=auto;html=1;" parent="1" source="bxDiHAAbnMYEJxM6YMKJ-7" target="FRCylCwCFbOvexBoIbVf-8" edge="1">
          <mxGeometry relative="1" as="geometry" />
        </mxCell>
        <mxCell id="bxDiHAAbnMYEJxM6YMKJ-7" value="" style="sketch=0;points=[[0,0,0],[0.25,0,0],[0.5,0,0],[0.75,0,0],[1,0,0],[0,1,0],[0.25,1,0],[0.5,1,0],[0.75,1,0],[1,1,0],[0,0.25,0],[0,0.5,0],[0,0.75,0],[1,0.25,0],[1,0.5,0],[1,0.75,0]];outlineConnect=0;dashed=0;verticalLabelPosition=bottom;verticalAlign=top;align=center;html=1;fontSize=12;fontStyle=0;aspect=fixed;shape=mxgraph.aws4.resourceIcon;resIcon=mxgraph.aws4.sqs;fillColor=none;" parent="1" vertex="1">
          <mxGeometry x="502" y="703" width="78" height="78" as="geometry" />
        </mxCell>
        <mxCell id="bxDiHAAbnMYEJxM6YMKJ-10" value="SQS" style="text;html=1;align=center;verticalAlign=middle;resizable=0;points=[];autosize=1;strokeColor=none;fillColor=none;" parent="1" vertex="1">
          <mxGeometry x="520" y="771" width="50" height="30" as="geometry" />
        </mxCell>
        <mxCell id="z12atYb5-pMm3GN0Tngy-2" style="edgeStyle=orthogonalEdgeStyle;rounded=0;orthogonalLoop=1;jettySize=auto;html=1;" parent="1" source="FRCylCwCFbOvexBoIbVf-8" target="z12atYb5-pMm3GN0Tngy-1" edge="1">
          <mxGeometry relative="1" as="geometry" />
        </mxCell>
        <mxCell id="FRCylCwCFbOvexBoIbVf-8" value="" style="sketch=0;outlineConnect=0;fontColor=#232F3E;gradientColor=none;fillColor=#ED7100;strokeColor=none;dashed=0;verticalLabelPosition=bottom;verticalAlign=top;align=center;html=1;fontSize=12;fontStyle=0;aspect=fixed;pointerEvents=1;shape=mxgraph.aws4.lambda_function;" parent="1" vertex="1">
          <mxGeometry x="680" y="718" width="48" height="48" as="geometry" />
        </mxCell>
        <mxCell id="7xlVcMKwOaf8gBqmTVXv-3" style="edgeStyle=orthogonalEdgeStyle;rounded=0;orthogonalLoop=1;jettySize=auto;html=1;" parent="1" source="XVp57DwJdD9aT9oTTaYd-11" target="7xlVcMKwOaf8gBqmTVXv-1" edge="1">
          <mxGeometry relative="1" as="geometry" />
        </mxCell>
        <mxCell id="7xlVcMKwOaf8gBqmTVXv-4" value="Houve falha" style="edgeLabel;html=1;align=center;verticalAlign=middle;resizable=0;points=[];" parent="7xlVcMKwOaf8gBqmTVXv-3" vertex="1" connectable="0">
          <mxGeometry x="-0.1164" relative="1" as="geometry">
            <mxPoint as="offset" />
          </mxGeometry>
        </mxCell>
        <mxCell id="XVp57DwJdD9aT9oTTaYd-11" value="Writer" style="text;html=1;align=center;verticalAlign=middle;resizable=0;points=[];autosize=1;strokeColor=none;fillColor=none;" parent="1" vertex="1">
          <mxGeometry x="674" y="766" width="60" height="30" as="geometry" />
        </mxCell>
        <mxCell id="z12atYb5-pMm3GN0Tngy-1" value="" style="outlineConnect=0;dashed=0;verticalLabelPosition=bottom;verticalAlign=top;align=center;html=1;shape=mxgraph.aws3.dynamo_db;fillColor=#2E73B8;gradientColor=none;" parent="1" vertex="1">
          <mxGeometry x="800" y="707.5" width="60" height="69" as="geometry" />
        </mxCell>
        <mxCell id="78sN_fHnttlK5tCgcDlP-1" value="" style="sketch=0;points=[[0,0,0],[0.25,0,0],[0.5,0,0],[0.75,0,0],[1,0,0],[0,1,0],[0.25,1,0],[0.5,1,0],[0.75,1,0],[1,1,0],[0,0.25,0],[0,0.5,0],[0,0.75,0],[1,0.25,0],[1,0.5,0],[1,0.75,0]];points=[[0,0,0],[0.25,0,0],[0.5,0,0],[0.75,0,0],[1,0,0],[0,1,0],[0.25,1,0],[0.5,1,0],[0.75,1,0],[1,1,0],[0,0.25,0],[0,0.5,0],[0,0.75,0],[1,0.25,0],[1,0.5,0],[1,0.75,0]];outlineConnect=0;dashed=0;verticalLabelPosition=bottom;verticalAlign=top;align=center;html=1;fontSize=12;fontStyle=0;aspect=fixed;shape=mxgraph.aws4.resourceIcon;resIcon=mxgraph.aws4.cloudwatch_2;fillColor=none;" parent="1" vertex="1">
          <mxGeometry x="860" y="559.99" width="46.75" height="46.75" as="geometry" />
        </mxCell>
        <mxCell id="I1FAZgchKAetT9O_WyYp-3" value="" style="sketch=0;points=[[0,0,0],[0.25,0,0],[0.5,0,0],[0.75,0,0],[1,0,0],[0,1,0],[0.25,1,0],[0.5,1,0],[0.75,1,0],[1,1,0],[0,0.25,0],[0,0.5,0],[0,0.75,0],[1,0.25,0],[1,0.5,0],[1,0.75,0]];points=[[0,0,0],[0.25,0,0],[0.5,0,0],[0.75,0,0],[1,0,0],[0,1,0],[0.25,1,0],[0.5,1,0],[0.75,1,0],[1,1,0],[0,0.25,0],[0,0.5,0],[0,0.75,0],[1,0.25,0],[1,0.5,0],[1,0.75,0]];outlineConnect=0;fillColor=none;dashed=0;verticalLabelPosition=bottom;verticalAlign=top;align=center;html=1;fontSize=12;fontStyle=0;aspect=fixed;shape=mxgraph.aws4.resourceIcon;resIcon=mxgraph.aws4.cloudformation;" parent="1" vertex="1">
          <mxGeometry x="800" y="558.37" width="50" height="50" as="geometry" />
        </mxCell>
        <mxCell id="I1FAZgchKAetT9O_WyYp-5" value="" style="points=[];aspect=fixed;html=1;align=center;shadow=0;dashed=0;fillColor=#FF6A00;strokeColor=none;shape=mxgraph.alibaba_cloud.codepipeline;" parent="1" vertex="1">
          <mxGeometry x="747.68" y="564.37" width="34.64" height="44" as="geometry" />
        </mxCell>
        <mxCell id="-BNhP1fGJ1MUT4oO9voD-1" style="edgeStyle=orthogonalEdgeStyle;rounded=0;orthogonalLoop=1;jettySize=auto;html=1;" edge="1" parent="1" source="5WXB7JSNYIkjzYqfgSPr-2" target="bxDiHAAbnMYEJxM6YMKJ-7">
          <mxGeometry relative="1" as="geometry" />
        </mxCell>
        <mxCell id="5WXB7JSNYIkjzYqfgSPr-2" value="" style="sketch=0;outlineConnect=0;fontColor=#232F3E;gradientColor=none;fillColor=#ED7100;strokeColor=none;dashed=0;verticalLabelPosition=bottom;verticalAlign=top;align=center;html=1;fontSize=12;fontStyle=0;aspect=fixed;pointerEvents=1;shape=mxgraph.aws4.lambda_function;" parent="1" vertex="1">
          <mxGeometry x="242.62" y="630" width="52.75" height="52.75" as="geometry" />
        </mxCell>
        <mxCell id="5WXB7JSNYIkjzYqfgSPr-6" style="edgeStyle=orthogonalEdgeStyle;rounded=0;orthogonalLoop=1;jettySize=auto;html=1;" parent="1" source="5WXB7JSNYIkjzYqfgSPr-4" target="nsRHjqSwHCmtydrMpkoe-1" edge="1">
          <mxGeometry relative="1" as="geometry" />
        </mxCell>
        <mxCell id="5WXB7JSNYIkjzYqfgSPr-4" value="Dados&amp;nbsp;&lt;div&gt;Streaming&lt;/div&gt;" style="ellipse;shape=cloud;whiteSpace=wrap;html=1;" parent="1" vertex="1">
          <mxGeometry x="70" y="816.5" width="120" height="80" as="geometry" />
        </mxCell>
        <mxCell id="5WXB7JSNYIkjzYqfgSPr-9" style="edgeStyle=orthogonalEdgeStyle;rounded=0;orthogonalLoop=1;jettySize=auto;html=1;" parent="1" source="5WXB7JSNYIkjzYqfgSPr-8" target="5WXB7JSNYIkjzYqfgSPr-2" edge="1">
          <mxGeometry relative="1" as="geometry" />
        </mxCell>
        <mxCell id="5WXB7JSNYIkjzYqfgSPr-8" value="" style="sketch=0;outlineConnect=0;fontColor=#232F3E;gradientColor=none;fillColor=light-dark(#7AA116,#FFFFFF);strokeColor=none;dashed=0;verticalLabelPosition=bottom;verticalAlign=top;align=center;html=1;fontSize=12;fontStyle=0;aspect=fixed;pointerEvents=1;shape=mxgraph.aws4.bucket;" parent="1" vertex="1">
          <mxGeometry x="102.11000000000001" y="564.37" width="55.77" height="58" as="geometry" />
        </mxCell>
        <mxCell id="5WXB7JSNYIkjzYqfgSPr-10" value="Transformer" style="text;html=1;align=center;verticalAlign=middle;whiteSpace=wrap;rounded=0;" parent="1" vertex="1">
          <mxGeometry x="190" y="600" width="60" height="30" as="geometry" />
        </mxCell>
        <mxCell id="7xlVcMKwOaf8gBqmTVXv-7" style="edgeStyle=orthogonalEdgeStyle;rounded=0;orthogonalLoop=1;jettySize=auto;html=1;" parent="1" source="7xlVcMKwOaf8gBqmTVXv-1" target="7xlVcMKwOaf8gBqmTVXv-6" edge="1">
          <mxGeometry relative="1" as="geometry" />
        </mxCell>
        <mxCell id="7xlVcMKwOaf8gBqmTVXv-1" value="DQL" style="sketch=0;points=[[0,0,0],[0.25,0,0],[0.5,0,0],[0.75,0,0],[1,0,0],[0,1,0],[0.25,1,0],[0.5,1,0],[0.75,1,0],[1,1,0],[0,0.25,0],[0,0.5,0],[0,0.75,0],[1,0.25,0],[1,0.5,0],[1,0.75,0]];outlineConnect=0;dashed=0;verticalLabelPosition=bottom;verticalAlign=top;align=center;html=1;fontSize=12;fontStyle=0;aspect=fixed;shape=mxgraph.aws4.resourceIcon;resIcon=mxgraph.aws4.sqs;fillColor=none;" parent="1" vertex="1">
          <mxGeometry x="580" y="840" width="44" height="44" as="geometry" />
        </mxCell>
        <mxCell id="7xlVcMKwOaf8gBqmTVXv-11" style="edgeStyle=orthogonalEdgeStyle;rounded=0;orthogonalLoop=1;jettySize=auto;html=1;" parent="1" source="7xlVcMKwOaf8gBqmTVXv-6" target="z12atYb5-pMm3GN0Tngy-1" edge="1">
          <mxGeometry relative="1" as="geometry" />
        </mxCell>
        <mxCell id="7xlVcMKwOaf8gBqmTVXv-12" value="Registrar&lt;div&gt;RelatÃ³rio&lt;/div&gt;" style="edgeLabel;html=1;align=center;verticalAlign=middle;resizable=0;points=[];" parent="7xlVcMKwOaf8gBqmTVXv-11" vertex="1" connectable="0">
          <mxGeometry x="-0.3958" y="1" relative="1" as="geometry">
            <mxPoint as="offset" />
          </mxGeometry>
        </mxCell>
        <mxCell id="7xlVcMKwOaf8gBqmTVXv-6" value="Error Handler" style="sketch=0;outlineConnect=0;fontColor=#232F3E;gradientColor=none;fillColor=#ED7100;strokeColor=none;dashed=0;verticalLabelPosition=bottom;verticalAlign=top;align=center;html=1;fontSize=12;fontStyle=0;aspect=fixed;pointerEvents=1;shape=mxgraph.aws4.lambda_function;" parent="1" vertex="1">
          <mxGeometry x="720.0000000000001" y="838" width="48" height="48" as="geometry" />
        </mxCell>
        <mxCell id="-BNhP1fGJ1MUT4oO9voD-2" value="Text" style="text;html=1;align=center;verticalAlign=middle;resizable=0;points=[];autosize=1;strokeColor=none;fillColor=none;" vertex="1" parent="1">
          <mxGeometry x="985" y="608" width="50" height="30" as="geometry" />
        </mxCell>
        <mxCell id="-BNhP1fGJ1MUT4oO9voD-5" value="&lt;font style=&quot;font-size: 16px;&quot;&gt;Fluxo&lt;/font&gt;" style="text;html=1;align=center;verticalAlign=middle;resizable=0;points=[];autosize=1;strokeColor=none;fillColor=none;" vertex="1" parent="1">
          <mxGeometry x="60" y="950" width="60" height="30" as="geometry" />
        </mxCell>
        <mxCell id="-BNhP1fGJ1MUT4oO9voD-6" value="&lt;ul&gt;&lt;li&gt;&lt;span style=&quot;background-color: transparent; color: light-dark(rgb(0, 0, 0), rgb(255, 255, 255));&quot;&gt;Bucket armazena objetos no formato .json ou similar&lt;/span&gt;&lt;/li&gt;&lt;li&gt;&lt;span style=&quot;background-color: transparent; color: light-dark(rgb(0, 0, 0), rgb(255, 255, 255));&quot;&gt;A funÃ§Ã£o Transformer recebe o evento de novo objeto gravado e realiza a transformaÃ§Ã£o dele&lt;/span&gt;&lt;/li&gt;&lt;li&gt;A Fila SQS recebe o objeto transformado em mensagem&lt;/li&gt;&lt;li&gt;A funÃ§Ã£o Register recebe um payload vindo de API Gateway e o grava na mesma fila SQS anterior&lt;/li&gt;&lt;li&gt;A funÃ§Ã£o Writer recebe os dados da fila e testa gravar conforme as tabelas do DynamoDB&lt;/li&gt;&lt;li&gt;Se nÃ£o encontrar exito, envia a mensagem nÃ£o grava para a fila DQL&lt;/li&gt;&lt;li&gt;A funÃ§Ã£o Error Handler processa as mensagens e busca diagnosticar a causa do erro, depois grava o resultado numa tabela expecifica&lt;/li&gt;&lt;/ul&gt;" style="text;html=1;align=left;verticalAlign=middle;resizable=0;points=[];autosize=1;strokeColor=none;fillColor=none;" vertex="1" parent="1">
          <mxGeometry x="47" y="960" width="780" height="140" as="geometry" />
        </mxCell>
      </root>
    </mxGraphModel>
  </diagram>
</mxfile>
